<?xml version="1.0" encoding="UTF-8"?>
<svg id="Capa_1" data-name="Capa 1" xmlns="http://www.w3.org/2000/svg" viewBox="0 0 512 512">
  <defs>
    <style>
      .cls-1 {
        stroke-linecap: round;
      }

      .cls-1, .cls-2, .cls-3, .cls-4, .cls-5, .cls-6, .cls-7, .cls-8, .cls-9 {
        stroke: #1d1d1b;
        stroke-miterlimit: 10;
        stroke-width: 3px;
      }

      .cls-1, .cls-5 {
        fill: #6cc2b7;
      }

      .cls-2 {
        fill: #8fd2ef;
      }

      .cls-3 {
        fill: #3fab35;
      }

      .cls-4 {
        fill: #d4d91f;
      }

      .cls-6 {
        fill: #374999;
      }

      .cls-7 {
        fill: #ec6145;
      }

      .cls-8 {
        fill: #c24693;
      }

      .cls-9 {
        fill: #3abddd;
      }
    </style>
  </defs>
  <path class="cls-2" d="m178.11,67.25h-63.33c-6.66,0-12.06,5.4-12.06,12.06v352.83c0,6.66,5.4,12.06,12.06,12.06h51.27c6.66,0,12.06-5.4,12.06-12.06v-202.05c0-6.66,5.4-12.06,12.06-12.06h202.05c6.66,0,12.06-5.4,12.06-12.06v-126.66c0-6.66-5.4-12.06-12.06-12.06h-214.11Z"/>
  <g>
    <rect class="cls-5" x="245.46" y="38.94" width="56.54" height="198.95" rx="28.27" ry="28.27" transform="translate(135.32 412.15) rotate(-90)"/>
    <circle class="cls-4" cx="202.53" cy="138.41" r="9.42"/>
    <circle class="cls-7" cx="230.8" cy="138.41" r="9.42"/>
    <circle class="cls-3" cx="259.08" cy="138.41" r="9.42"/>
    <circle class="cls-9" cx="288.39" cy="138.41" r="9.42"/>
    <circle class="cls-6" cx="315.62" cy="138.41" r="9.42"/>
    <circle class="cls-8" cx="343.89" cy="138.41" r="9.42"/>
  </g>
  <path class="cls-1" d="m354.5,237.75h-138c-3.31,0-6,2.69-6,6v105c0,3.31,2.69,6,6,6h84.18c6.53,0,11.82-5.29,11.82-11.82v-12.36c0-6.53-5.29-11.82-11.82-11.82h-33.36c-6.53,0-11.82-5.29-11.82-11.82v-11.36c0-6.53,5.29-11.82,11.82-11.82h75.36c6.53,0,11.82,5.29,11.82,11.82v84.36c0,6.53-5.29,11.82-11.82,11.82H114.32c-6.53,0-11.82,5.29-11.82,11.82v29.36c0,6.53,5.29,11.82,11.82,11.82h289.18c3.31,0,6-2.69,6-6v-189.18c0-6.53-5.29-11.82-11.82-11.82h-43.18Z"/>
</svg>